<svg xmlns="http://www.w3.org/2000/svg" viewBox="0 0 48 48" fill="none">
  <defs>
    <linearGradient id="g" x1="0%" y1="0%" x2="100%" y2="100%">
      <stop offset="0%" stop-color="#7c3aed"/>
      <stop offset="50%" stop-color="#4f46e5"/>
      <stop offset="100%" stop-color="#2563eb"/>
    </linearGradient>
  </defs>
  <path d="M24 4C12.954 4 4 12.954 4 24s8.954 20 20 20c4.97 0 9.53-1.81 13.03-4.81l-5.66-5.66A12 12 0 1 1 36 24c0 1.61-.32 3.15-.89 4.55l5.72 5.72A19.91 19.91 0 0 0 44 24C44 12.954 35.046 4 24 4z" fill="url(#g)"/>
  <path d="M28 28l12 12M40 40l-0.5-6.5M40 40l-6.5-0.5" stroke="url(#g)" stroke-width="5.5" stroke-linecap="round" stroke-linejoin="round"/>
</svg>
